<svg width="48" height="48" viewBox="0 0 48 48" fill="none" xmlns="http://www.w3.org/2000/svg">
<path d="M8 34V38H40V34H8ZM8 12H12.4C12.2333 11.7 12.125 11.3833 12.075 11.05C12.025 10.7167 12 10.3667 12 10C12 8.33333 12.5833 6.91667 13.75 5.75C14.9167 4.58333 16.3333 4 18 4C19 4 19.925 4.25833 20.775 4.775C21.625 5.29167 22.3667 5.93333 23 6.7L24 8L25 6.7C25.6 5.9 26.3333 5.25 27.2 4.75C28.0667 4.25 29 4 30 4C31.6667 4 33.0833 4.58333 34.25 5.75C35.4167 6.91667 36 8.33333 36 10C36 10.3667 35.975 10.7167 35.925 11.05C35.875 11.3833 35.7667 11.7 35.6 12H40C41.1 12 42.0417 12.3917 42.825 13.175C43.6083 13.9583 44 14.9 44 16V38C44 39.1 43.6083 40.0417 42.825 40.825C42.0417 41.6083 41.1 42 40 42H8C6.9 42 5.95833 41.6083 5.175 40.825C4.39167 40.0417 4 39.1 4 38V16C4 14.9 4.39167 13.9583 5.175 13.175C5.95833 12.3917 6.9 12 8 12ZM8 28H40V16H29.8L34 21.7L30.8 24L24 14.8L17.2 24L14 21.7L18.1 16H8V28ZM19.425 11.425C19.8083 11.0417 20 10.5667 20 10C20 9.43333 19.8083 8.95833 19.425 8.575C19.0417 8.19167 18.5667 8 18 8C17.4333 8 16.9583 8.19167 16.575 8.575C16.1917 8.95833 16 9.43333 16 10C16 10.5667 16.1917 11.0417 16.575 11.425C16.9583 11.8083 17.4333 12 18 12C18.5667 12 19.0417 11.8083 19.425 11.425ZM30 12C30.5667 12 31.0417 11.8083 31.425 11.425C31.8083 11.0417 32 10.5667 32 10C32 9.43333 31.8083 8.95833 31.425 8.575C31.0417 8.19167 30.5667 8 30 8C29.4333 8 28.9583 8.19167 28.575 8.575C28.1917 8.95833 28 9.43333 28 10C28 10.5667 28.1917 11.0417 28.575 11.425C28.9583 11.8083 29.4333 12 30 12Z" fill="#82B1CC"/>
</svg>
